<mxfile host="Electron" agent="Mozilla/5.0 (Windows NT 10.0; Win64; x64) AppleWebKit/537.36 (KHTML, like Gecko) draw.io/28.0.6 Chrome/138.0.7204.100 Electron/37.2.3 Safari/537.36" version="28.0.6">
  <diagram name="Page-1" id="dvffoQbbqPm0P-pRA9r3">
    <mxGraphModel dx="1426" dy="841" grid="1" gridSize="10" guides="1" tooltips="1" connect="1" arrows="1" fold="1" page="1" pageScale="1" pageWidth="827" pageHeight="1169" math="0" shadow="0">
      <root>
        <mxCell id="0" />
        <mxCell id="1" parent="0" />
        <mxCell id="sB-a15Fyf1JpLF-ZqnKi-2" value="" style="rounded=0;whiteSpace=wrap;html=1;strokeColor=none;" vertex="1" parent="1">
          <mxGeometry x="60" width="660" height="750" as="geometry" />
        </mxCell>
        <mxCell id="zEKdEMYJmXhXxwOZI6B2-9" style="edgeStyle=orthogonalEdgeStyle;rounded=0;orthogonalLoop=1;jettySize=auto;html=1;" parent="1" target="zEKdEMYJmXhXxwOZI6B2-8" edge="1">
          <mxGeometry relative="1" as="geometry">
            <mxPoint x="395" y="170" as="sourcePoint" />
          </mxGeometry>
        </mxCell>
        <mxCell id="zEKdEMYJmXhXxwOZI6B2-1" value="Group Member 1" style="shape=umlActor;verticalLabelPosition=bottom;verticalAlign=top;html=1;outlineConnect=0;fontSize=16;" parent="1" vertex="1">
          <mxGeometry x="370" y="50" width="50" height="90" as="geometry" />
        </mxCell>
        <mxCell id="zEKdEMYJmXhXxwOZI6B2-5" value="&lt;b&gt;&lt;font&gt;Digital Profile:&lt;/font&gt;&lt;/b&gt;&lt;div&gt;&lt;ul&gt;&lt;li&gt;Name&lt;/li&gt;&lt;li&gt;Role&lt;/li&gt;&lt;li&gt;Current Task&lt;/li&gt;&lt;li&gt;Status&lt;/li&gt;&lt;/ul&gt;&lt;/div&gt;" style="rounded=0;whiteSpace=wrap;html=1;align=left;fontSize=16;" parent="1" vertex="1">
          <mxGeometry x="160" y="20" width="150" height="130" as="geometry" />
        </mxCell>
        <mxCell id="zEKdEMYJmXhXxwOZI6B2-8" value="&lt;b&gt;&lt;font style=&quot;font-size: 21px;&quot;&gt;CollabAR&lt;/font&gt;&lt;/b&gt;" style="rounded=1;whiteSpace=wrap;html=1;" parent="1" vertex="1">
          <mxGeometry x="327.5" y="220" width="135" height="40" as="geometry" />
        </mxCell>
        <mxCell id="zEKdEMYJmXhXxwOZI6B2-10" value="Personal Device" style="text;html=1;align=center;verticalAlign=middle;whiteSpace=wrap;rounded=0;fontSize=16;" parent="1" vertex="1">
          <mxGeometry x="410" y="180" width="140" height="30" as="geometry" />
        </mxCell>
        <mxCell id="zEKdEMYJmXhXxwOZI6B2-11" value="" style="swimlane;startSize=0;" parent="1" vertex="1">
          <mxGeometry x="173" y="300" width="481" height="200" as="geometry">
            <mxRectangle x="120" y="280" width="50" height="40" as="alternateBounds" />
          </mxGeometry>
        </mxCell>
        <mxCell id="zEKdEMYJmXhXxwOZI6B2-12" value="Digital Room" style="text;html=1;align=center;verticalAlign=middle;whiteSpace=wrap;rounded=0;fontStyle=1;fontSize=23;" parent="zEKdEMYJmXhXxwOZI6B2-11" vertex="1">
          <mxGeometry x="10" y="20" width="170" height="30" as="geometry" />
        </mxCell>
        <mxCell id="zEKdEMYJmXhXxwOZI6B2-16" value="&lt;ul&gt;&lt;li&gt;&lt;span style=&quot;background-color: transparent; color: light-dark(rgb(0, 0, 0), rgb(255, 255, 255));&quot;&gt;Digital Objects&lt;/span&gt;&lt;/li&gt;&lt;li&gt;&lt;span style=&quot;background-color: transparent; color: light-dark(rgb(0, 0, 0), rgb(255, 255, 255));&quot;&gt;Anchors for physical objects&lt;/span&gt;&lt;/li&gt;&lt;li&gt;&lt;span style=&quot;background-color: transparent; color: light-dark(rgb(0, 0, 0), rgb(255, 255, 255));&quot;&gt;Information and ideas recorded&lt;/span&gt;&lt;/li&gt;&lt;li&gt;&lt;span style=&quot;background-color: transparent; color: light-dark(rgb(0, 0, 0), rgb(255, 255, 255));&quot;&gt;Interactions with group members&lt;/span&gt;&lt;/li&gt;&lt;/ul&gt;" style="text;html=1;align=left;verticalAlign=middle;whiteSpace=wrap;rounded=0;fontSize=23;" parent="zEKdEMYJmXhXxwOZI6B2-11" vertex="1">
          <mxGeometry x="50" y="105" width="420" height="30" as="geometry" />
        </mxCell>
        <mxCell id="zEKdEMYJmXhXxwOZI6B2-17" value="Physical&lt;div&gt;Space&lt;/div&gt;" style="text;html=1;align=center;verticalAlign=middle;whiteSpace=wrap;rounded=0;fontStyle=1;fontSize=16;" parent="1" vertex="1">
          <mxGeometry x="60" y="380" width="130" height="30" as="geometry" />
        </mxCell>
        <mxCell id="zEKdEMYJmXhXxwOZI6B2-28" style="edgeStyle=orthogonalEdgeStyle;rounded=0;orthogonalLoop=1;jettySize=auto;html=1;exitX=0.5;exitY=0;exitDx=0;exitDy=0;exitPerimeter=0;entryX=0;entryY=0.5;entryDx=0;entryDy=0;" parent="1" source="zEKdEMYJmXhXxwOZI6B2-19" target="zEKdEMYJmXhXxwOZI6B2-21" edge="1">
          <mxGeometry relative="1" as="geometry" />
        </mxCell>
        <mxCell id="zEKdEMYJmXhXxwOZI6B2-19" value="Group Member 2" style="shape=umlActor;verticalLabelPosition=bottom;verticalAlign=top;html=1;outlineConnect=0;fontSize=16;" parent="1" vertex="1">
          <mxGeometry x="130" y="625" width="50" height="90" as="geometry" />
        </mxCell>
        <mxCell id="zEKdEMYJmXhXxwOZI6B2-20" value="&lt;b&gt;Digital Profile&lt;/b&gt;" style="rounded=0;whiteSpace=wrap;html=1;align=center;fontSize=16;" parent="1" vertex="1">
          <mxGeometry x="197.5" y="640" width="140" height="35" as="geometry" />
        </mxCell>
        <mxCell id="zEKdEMYJmXhXxwOZI6B2-21" value="&lt;b&gt;&lt;font style=&quot;font-size: 21px;&quot;&gt;CollabAR&lt;/font&gt;&lt;/b&gt;" style="rounded=1;whiteSpace=wrap;html=1;" parent="1" vertex="1">
          <mxGeometry x="200" y="545" width="135" height="40" as="geometry" />
        </mxCell>
        <mxCell id="zEKdEMYJmXhXxwOZI6B2-22" value="Personal Device" style="text;html=1;align=center;verticalAlign=middle;whiteSpace=wrap;rounded=0;fontSize=16;" parent="1" vertex="1">
          <mxGeometry x="50" y="580" width="110" height="30" as="geometry" />
        </mxCell>
        <mxCell id="zEKdEMYJmXhXxwOZI6B2-29" style="edgeStyle=orthogonalEdgeStyle;rounded=0;orthogonalLoop=1;jettySize=auto;html=1;exitX=0.5;exitY=0;exitDx=0;exitDy=0;exitPerimeter=0;entryX=1;entryY=0.5;entryDx=0;entryDy=0;" parent="1" source="zEKdEMYJmXhXxwOZI6B2-24" target="zEKdEMYJmXhXxwOZI6B2-26" edge="1">
          <mxGeometry relative="1" as="geometry" />
        </mxCell>
        <mxCell id="zEKdEMYJmXhXxwOZI6B2-24" value="Group Member 3" style="shape=umlActor;verticalLabelPosition=bottom;verticalAlign=top;html=1;outlineConnect=0;fontSize=16;" parent="1" vertex="1">
          <mxGeometry x="600" y="625" width="50" height="90" as="geometry" />
        </mxCell>
        <mxCell id="zEKdEMYJmXhXxwOZI6B2-25" value="&lt;b&gt;Digital Profile&lt;/b&gt;" style="rounded=0;whiteSpace=wrap;html=1;align=center;fontSize=16;" parent="1" vertex="1">
          <mxGeometry x="440" y="640" width="140" height="35" as="geometry" />
        </mxCell>
        <mxCell id="zEKdEMYJmXhXxwOZI6B2-26" value="&lt;b&gt;&lt;font style=&quot;font-size: 21px;&quot;&gt;CollabAR&lt;/font&gt;&lt;/b&gt;" style="rounded=1;whiteSpace=wrap;html=1;" parent="1" vertex="1">
          <mxGeometry x="440" y="545" width="135" height="40" as="geometry" />
        </mxCell>
        <mxCell id="zEKdEMYJmXhXxwOZI6B2-27" value="Personal Device" style="text;html=1;align=center;verticalAlign=middle;whiteSpace=wrap;rounded=0;fontSize=16;" parent="1" vertex="1">
          <mxGeometry x="620" y="580" width="100" height="30" as="geometry" />
        </mxCell>
        <mxCell id="zEKdEMYJmXhXxwOZI6B2-30" style="edgeStyle=orthogonalEdgeStyle;rounded=0;orthogonalLoop=1;jettySize=auto;html=1;exitX=0.5;exitY=0;exitDx=0;exitDy=0;entryX=0.198;entryY=0.99;entryDx=0;entryDy=0;entryPerimeter=0;" parent="1" source="zEKdEMYJmXhXxwOZI6B2-21" target="zEKdEMYJmXhXxwOZI6B2-11" edge="1">
          <mxGeometry relative="1" as="geometry" />
        </mxCell>
        <mxCell id="zEKdEMYJmXhXxwOZI6B2-31" style="edgeStyle=orthogonalEdgeStyle;rounded=0;orthogonalLoop=1;jettySize=auto;html=1;exitX=0.5;exitY=0;exitDx=0;exitDy=0;entryX=0.694;entryY=1;entryDx=0;entryDy=0;entryPerimeter=0;" parent="1" source="zEKdEMYJmXhXxwOZI6B2-26" target="zEKdEMYJmXhXxwOZI6B2-11" edge="1">
          <mxGeometry relative="1" as="geometry" />
        </mxCell>
        <mxCell id="zEKdEMYJmXhXxwOZI6B2-32" style="edgeStyle=orthogonalEdgeStyle;rounded=0;orthogonalLoop=1;jettySize=auto;html=1;exitX=0.5;exitY=1;exitDx=0;exitDy=0;entryX=0.462;entryY=-0.01;entryDx=0;entryDy=0;entryPerimeter=0;" parent="1" source="zEKdEMYJmXhXxwOZI6B2-8" target="zEKdEMYJmXhXxwOZI6B2-11" edge="1">
          <mxGeometry relative="1" as="geometry" />
        </mxCell>
      </root>
    </mxGraphModel>
  </diagram>
</mxfile>
